<?xml version="1.0" encoding="utf-8"?>
<!-- Generator: Adobe Illustrator 23.0.6, SVG Export Plug-In . SVG Version: 6.00 Build 0)  -->
<svg version="1.1"
	 id="svg2" inkscape:export-filename="G:\Users\suitedoalex\sites\sky-logo-0.png" inkscape:export-xdpi="561.73999" inkscape:export-ydpi="561.73999" inkscape:version="0.92.4 (5da689c313, 2019-01-14)" sodipodi:docname="sky-logo.svg" xmlns:cc="http://creativecommons.org/ns#" xmlns:dc="http://purl.org/dc/elements/1.1/" xmlns:inkscape="http://www.inkscape.org/namespaces/inkscape" xmlns:rdf="http://www.w3.org/1999/02/22-rdf-syntax-ns#" xmlns:sodipodi="http://sodipodi.sourceforge.net/DTD/sodipodi-0.dtd" xmlns:svg="http://www.w3.org/2000/svg"
	 xmlns="http://www.w3.org/2000/svg" xmlns:xlink="http://www.w3.org/1999/xlink" x="0px" y="0px" viewBox="0 0 607.6 229.2"
	 style="enable-background:new 0 0 607.6 229.2;" xml:space="preserve">
<style type="text/css">
	.st0{fill-rule:evenodd;clip-rule:evenodd;fill:#E30613;}
	.st1{fill:#E30613;}
</style>
<g id="g88" transform="matrix(5.5727536,0,0,5.5727536,-3241.0596,-869.17134)">
	<g id="g94" transform="translate(612.9485,208.6127)">
		<path id="path96" inkscape:connector-curvature="0" class="st0" d="M2.2-39.5C-2.7-42.4-6-43-9.5-43c-1.9,0-4.1,0.5-4.4,2.5
			c-0.2,1.7,1.3,2.1,4.6,2.9c6,1.3,12.1,3,12.9,9.5l3.3-17L2.2-39.5z M47.4-39l9-12.1h13.3L50.8-27.8L48-13.2H36.6l3.2-16.3L34-40.1
			l-7.6,8.8l10.3,18.1H22.9l-8-15.1l-2.7,15.1H0.6l1.6-8.7c-3.1,7.5-9,9.9-16.9,9.9c-6.7,0-12.9-2.1-16.2-6l6.3-7.8
			c2.7,2.8,6.9,4.3,11.4,4.3c3.1,0,5-1.2,5.1-2.9c0.1-2.8-4.5-3.2-8.7-4.4c-4.8-1.4-9.8-4.8-8.5-11.8c1-5.4,5.6-11.7,17.3-11.7
			c6.6,0,11.4,1.6,15.4,4.5l0.6-3.4h11.5l-3.4,16.5l13.6-16.5h11.5L47.4-39z"/>
	</g>
	<g id="g98" transform="translate(666.3048,214.7299)">
		<path id="path100" inkscape:connector-curvature="0" class="st1" d="M20-53.8h0.9c0.4,0,0.6-0.2,0.7-0.5c0.1-0.4,0-0.5-0.4-0.5h-1
			L20-53.8z M18.8-52l0.9-3.4h1.8c0.8,0,1.1,0.4,0.9,1.1c-0.1,0.5-0.4,0.8-0.8,0.9c0.3,0.1,0.4,0.3,0.3,0.7L21.6-52h-0.7l0.2-0.6
			c0.1-0.3,0-0.5-0.4-0.5h-0.9L19.5-52H18.8z M21.4-56.4c-0.7,0-1.4,0.3-2,0.8c-0.6,0.5-1.1,1.1-1.3,1.9c-0.2,0.7-0.1,1.4,0.3,1.9
			c0.4,0.5,0.9,0.8,1.6,0.8c0.7,0,1.4-0.3,2-0.8c0.6-0.5,1.1-1.1,1.3-1.9c0.2-0.7,0.1-1.4-0.3-1.9C22.6-56.1,22.1-56.4,21.4-56.4
			 M21.5-56.8c0.8,0,1.5,0.3,1.9,0.9c0.4,0.6,0.6,1.3,0.3,2.2c-0.2,0.8-0.7,1.6-1.5,2.2c-0.8,0.6-1.6,0.9-2.4,0.9
			c-0.9,0-1.5-0.3-1.9-0.9c-0.4-0.6-0.6-1.3-0.3-2.2c0.2-0.9,0.7-1.6,1.5-2.2C19.8-56.5,20.6-56.8,21.5-56.8"/>
	</g>
</g>
</svg>
